# xmcd
#
# Track frame offsets: 
#        187
#        13867
#        36250
#        50042
#        71405
#        82172
#        93882
#        118502
#        141267
#        156545
#        196845
#        221010
#        233142
#        257055
#        277172
#        296502
#
# Disc length: 4569 seconds
#
# Revision: 21
# Processed by: cddbd v1.5.2PL0 Copyright (c) Steve Scherf et al.
# Submitted via: ExactAudioCopy v1.3
#
DISCID=f611d710
DTITLE=Guns N' Roses - Use Your Illusion I [MVCG-43]
DYEAR=1991
DGENRE=Hard Rock
TTITLE0=Right Next Door To Hell
TTITLE1=Dust N' Bones
TTITLE2=Live And Let Die
TTITLE3=Don't Cry (Original)
TTITLE4=Perfect Crime
TTITLE5=You Ain't The First
TTITLE6=Bad Obsession
TTITLE7=Back Off Bitch
TTITLE8=Double Talkin' Jive
TTITLE9=November Rain
TTITLE10=The Garden
TTITLE11=Garden Of Eden
TTITLE12=Don't Damn Me
TTITLE13=Bad Apples
TTITLE14=Dead Horse
TTITLE15=Coma
EXTD=more music of guns n' roses YEAR: 1991
EXTT0=
EXTT1=
EXTT2=
EXTT3=
EXTT4=
EXTT5=
EXTT6=
EXTT7=
EXTT8=
EXTT9=
EXTT10=
EXTT11=
EXTT12=
EXTT13=
EXTT14=
EXTT15=
PLAYORDER=
